<?xml version="1.0" standalone="no"?>
<!DOCTYPE svg PUBLIC "-//W3C//DTD SVG 1.1//EN" "http://www.w3.org/Graphics/SVG/1.1/DTD/svg11.dtd" >
<!--
2013-9-30: Created.
-->
<svg>
<metadata>
Created by iconfont
</metadata>
<defs>

<font id="iconfont" horiz-adv-x="1024" >
  <font-face
    font-family="iconfont"
    font-weight="500"
    font-stretch="normal"
    units-per-em="1024"
    ascent="896"
    descent="-128"
  />
    <missing-glyph />
    
    <glyph glyph-name="shu" unicode="&#58891;" d="M994.76530133 722.58500587c-53.300336 15.20387413-103.56077013 21.40265387-150.04888853 21.40265386-201.48708053 0-331.85028693-116.13406507-331.85028693-116.13406506l-1.34476054 0.05785066-1.3152896-0.05785066c0 0-130.34683307 116.13406507-331.82627306 116.13406506-46.45973867 0-96.7190816-6.19877973-150.04997974-21.40265386-15.20387413-4.32681173-25.75893653-18.53630507-25.75893653-34.8513536l0-607.4487488c0-20.2336288 15.90572587-36.13935467 34.8524448-36.13935467 1.6667616 0 3.4208448 0.1178848 5.1760192 0.35037973 29.7932192 4.56258133 74.20525333 9.5912448 126.21977173 9.5912448 94.55567573 0 214.345264-16.43293333 317.642976-81.63418346 7.30886187-4.56039787 15.5280576-6.898448 23.74506987-6.898448 0.4377024 0 0.8775872 0.05894293 1.3152896 0.05894293 0.46826453 0 0.90487573-0.05894293 1.34476053-0.05894293 8.2148288 0 16.43402453 2.33914133 23.71559894 6.898448 103.34464853 65.20125013 223.13969387 81.63418347 317.66589866 81.63418346 52.07346027 0 96.45602347-5.02866347 126.24924267-9.5912448 1.7551744-0.23249493 3.45140693-0.35037973 5.1771104-0.35037973 18.91506453 0 34.8513536 15.90572587 34.8513536 36.13935467L1020.52642133 687.73365227C1020.55370987 704.0487008 1009.96917547 718.25819413 994.76530133 722.58500587L994.76530133 722.58500587 994.76530133 722.58500587zM492.3072224 10.812508800000046c-88.2695744 51.9861376-199.726448 79.41183573-323.4608128 79.41183573-54.99656853 0-101.80668693-5.43798507-131.336848-9.93944106L37.5095616 687.73365227c0 0 0.05894293 0.05785067 0.0873216 0.05785066 46.75226773 13.33299733 94.11797333 20.05789333 140.78182827 20.05789334 42.48330773 0 85.05393707-5.55477867 126.57124266-16.54863467 33.39089067-8.82935893 66.16616-21.2269184 97.48096747-36.78117227 52.9794272-26.31452373 83.88381973-53.097312 84.99499413-54.0906016l5.2928128-4.7372256L492.3072224 10.812508800000046 492.3072224 10.812508800000046 492.3072224 10.812508800000046zM985.6139424 80.28490347000002c-29.559632 4.501456-76.33918827 9.93944107-131.3674112 9.93944106-123.73545707 0-235.17159147-27.42569813-323.48482667-79.41183573l-0.4387936 584.87925333 5.32228374 4.7372256c1.1111744 0.9932896 32.02102507 27.77607787 85.009184 54.0906016 31.32026453 15.55425387 64.12937173 27.95072213 97.4896992 36.78117227 41.51839787 10.993856 84.0890272 16.54863467 126.57233386 16.54863467 46.66276267 0 94.0579392-6.72489493 140.780736-20.05789334 0.02947093 0 0.0862304-0.05785067 0.1167936-0.05785066L985.6139424 80.28490347000002 985.6139424 80.28490347000002 985.6139424 80.28490347000002zM181.0387616 743.98765973c2.39808427 0 4.7372256 0 7.1342176-0.05894293l-0.02947093 0.05894293L181.0387616 743.98765973 181.0387616 743.98765973 181.0387616 743.98765973zM181.0387616 743.98765973"  horiz-adv-x="1024" />

    
    <glyph glyph-name="duihao" unicode="&#58910;" d="M416.832 97.92C400.64 97.92 384.512 104.128 372.16 116.48L119.424 370.24C94.784 395.008 94.784 435.2 119.424 459.968 144.128 484.736 184.128 484.736 208.768 459.968L416.832 251.072 814.4 650.24C839.04 675.072 879.04 675.072 903.744 650.24 928.384 625.472 928.384 585.344 903.744 560.576L461.504 116.48C449.152 104.128 432.96 97.92 416.832 97.92Z"  horiz-adv-x="1024" />

    
    <glyph glyph-name="zuoxuanzhuan90du" unicode="&#58897;" d="M884.250036 464.084828c-3.106108-36.257523-22.786646-55.913785-59.018615-59.019893-35.213636 3.106108-54.358814 22.76237-57.4662 59.019893 3.107386 35.188081 22.252564 54.358814 57.4662 57.464922C861.46339 518.443642 881.143928 499.272909 884.250036 464.084828zM786.403149 464.084828c3.107386-24.851423 16.042903-38.829549 38.828272-41.935658 22.76237 2.063499 35.722163 16.040348 38.829549 41.935658-3.107386 24.848867-16.065902 38.29419-38.829549 40.380687C802.444775 501.359407 789.509258 487.892363 786.403149 464.084828zM727.383256 381.767205c-1.043888-103.549298-34.701275-156.332698-100.952996-158.419196-69.382106 1.043888-104.060382 53.82601-104.060382 158.419196 1.019611 104.570187 35.188081 158.421751 102.507966 161.527859C692.170898 541.206012 726.339369 487.38128 727.383256 381.767205zM558.092042 381.767205c0-89.060088 22.253842-133.059245 66.785803-132.015357 44.507684-1.04261 66.785803 42.955269 66.785803 132.015357 0 90.082255-22.789202 134.589939-68.336941 133.570328C580.856968 512.232703 559.111653 467.700742 558.092042 381.767205zM373.269009 332.068193c-58.000282 5.169607-89.572449 39.338077-94.740779 102.507966 4.125719 67.293053 37.785662 103.525022 100.954273 108.720183 72.463938 1.018333 108.186101-50.23565 107.16649-153.760672 0-109.764071-37.808661-165.142496-113.378707-166.186383-45.573293 2.087775-74.550435 24.317341-86.974869 66.785803l32.616055 10.872018c7.23055-36.254968 26.40256-53.850286 57.4662-52.805121 48.656403 2.060943 73.506548 45.040489 74.550435 128.909249C435.39501 347.06593 409.500978 332.068193 373.269009 332.068193zM376.376395 513.785118c-39.362354-3.106108-60.572308-28.490335-63.678417-76.104128 2.062221-47.638069 23.296452-72.99802 63.678417-76.104128 40.380687 0 65.230832 18.637928 74.550435 55.913785C450.92683 482.722756 426.075407 514.804729 376.376395 513.785118zM511.998722-128C229.684004-128 0.015971 101.68081 0.015971 384.017249c0 0.336037 0.012777 0.668241 0.012777 1.004279l53.978057 0c-0.001278-0.336037-0.012777-0.668241-0.012777-1.004279 0-252.572229 205.451631-458.031526 458.004694-458.031526 252.554341 0 458.007249 205.459297 458.007249 458.031526 0 252.536453-205.452909 458.002139-458.007249 458.002139-141.925262 0-268.929448-64.924182-353.002642-166.585028l120.583703 0.954448 8.147945 0-47.112931-47.806727-167.972619-1.336483L71.53185 795.215662l47.176817 47.870612 0.037054-5.51331 0-126.123845C212.731373 824.146807 354.11872 896 511.998722 896 794.315996 896 1023.984029 666.31919 1023.984029 384.017249 1023.984029 101.68081 794.315996-128 511.998722-128z"  horiz-adv-x="1024" />

    
    <glyph glyph-name="kaoshi1" unicode="&#58918;" d="M120.298459 9.567916C117.042442 14.435673 114.617749 19.929284 113.024379 25.979211 111.431009 32.098676 110.599685 38.357221 110.599685 44.824383L110.599685 546.342427 365.37435 743.917366C368.561089 748.437425 370.639398 752.262092 371.470722 756.712612 372.232767 761.163133 371.886384 765.613654 370.223735 770.064174 368.630366 774.514695 366.205672 777.991664 363.018933 780.425542L289.031144 844.888552 757.785004 844.888552C777.182553 844.888552 793.739745 838.004153 807.456582 824.235355 821.173419 810.466557 828.031838 793.846644 828.031838 774.375616L828.031838 550.862486 878.9504 600.722225 878.9504 774.375616C878.9504 807.615442 866.826933 836.404747 842.579999 860.743532 840.155305 863.17741 837.730611 865.402671 835.305917 867.419313 832.881224 869.435955 830.456532 871.661215 828.031838 874.095094L818.333065 878.962851C815.908371 881.396729 813.068015 882.996135 809.881276 883.830608L800.182501 888.698365C796.926484 889.463298 793.531914 890.506389 789.860236 891.758098 786.188556 892.940267 782.793986 893.77474 779.537969 894.191976 776.281952 894.609212 772.887381 895.026449 769.215703 895.374146 765.682577 895.791382 761.803068 896 757.785004 896L223.313292 896 218.463905 896 216.039212 894.81783C213.268134 893.983358 211.813318 893.427043 210.635609 893.009806 209.388624 892.523031 208.34947 891.966716 207.587423 891.132243L201.560328 883.830608C199.482019 880.979493 199.135635 879.380087 199.135635 877.780681L62.175093 537.510926C60.512447 534.242574 59.7504 530.974223 59.7504 527.775411L59.7504 44.824383C59.7504 11.584558 71.666036-16.996128 95.497309-40.917678 119.328582-64.839226 147.801411-76.8 180.915795-76.8L315.451643-76.8 333.602205-25.758092 180.915795-25.758092C161.518248-25.758092 144.961055-18.873692 131.244218-5.035354 127.156878-0.167598 123.554476 4.700158 120.298459 9.567916ZM247.483733 486.4 674.1504 486.4 674.1504 435.2 247.483733 435.2 247.483733 486.4 247.483733 486.4ZM571.7504 366.933333 571.7504 315.733333 247.483733 315.733333 247.483733 366.933333 571.7504 366.933333ZM452.283733 247.466667 452.283733 196.266667 247.483733 196.266667 247.483733 247.466667 452.283733 247.466667ZM247.483733 605.866667 742.417067 605.866667 742.417067 554.666667 247.483733 554.666667 247.483733 605.866667 247.483733 605.866667 247.483733 605.866667ZM493.87413 139.800817 812.820594 452.367305C818.319652 457.709549 824.775066 461.877675 832.24661 464.871678 839.718153 467.865684 847.249469 469.333333 854.721014 469.333333 862.192556 469.333333 869.604328 467.806978 876.896556 464.812972 884.188783 461.760263 890.703969 457.592137 896.501886 452.249894L946.949751 402.584636C958.485815 391.195675 964.283733 377.39977 964.283733 361.196921 964.283733 344.99407 958.426044 331.198165 946.889979 319.867911L627.124992 6.549955 493.87413 139.800817ZM457.182609 103.843244 405.651337 53.342768 357.534594-104.400196 349.883733-128 542.231159-76.632269 590.430534-29.404681 457.182609 103.843244ZM820.501798-3.240929C806.013404-17.354006 788.524887-24.410545 768.036248-24.410545L649.49498-24.410545 622.9504-76.8 768.036248-76.8C803.013282-76.8 833.087676-64.540155 858.259432-40.020465 883.431188-15.500774 896.017067 13.794553 896.017067 47.865518L896.017067 196.266667 842.23439 145.160219 842.23439 47.865518C842.23439 27.90763 834.990193 10.872148 820.501798-3.240929Z"  horiz-adv-x="1024" />

    
    <glyph glyph-name="tuichu1" unicode="&#58893;" d="M138.95440747-24.739604269999973c-56.767024 0-102.9527904 51.52223893-102.9527904 114.855888L36.00161707 671.54085547c0 66.76977387 46.18576533 121.09832853 102.9527904 121.09832853l437.74692373 0c56.7637504 0 110.54326613-49.9962848 110.54326613-116.76933333l0-70.0596352c0-16.60976-21.19417173-26.60923627-37.9098112-26.60923627s-30.3182432 13.51091627-30.3182432 30.12067733l-1.549968 66.54819414c0 28.36986773-17.43386347 47.12229547-40.77397653 47.12229546L138.95440747 722.99214507c-23.3357472 0-33.17586027-18.75242667-33.17586027-47.12229547l0-583.84012053c0-28.3731424 9.8390208-47.12229547 33.17586027-47.12229547l437.74692373 0c23.3357472 0 40.766336 18.74915307 40.766336 47.12229547l0 70.0596352c0 16.60976 15.1525728 26.60923627 31.86711893 26.60923626s37.9098112-9.9994752 37.9098112-26.60923626l0-70.0596352c0-66.7763232-53.780608-116.76933333-110.54326613-116.76933334L138.95440747-24.739604269999973 138.95440747-24.739604269999973zM792.1042848 166.56025812999997c-8.180992 0-15.84678293 3.357536-21.5925792 9.46790187-11.602928 12.3287936-11.602928 32.37467947 0.00327467 44.68709973L887.2646656 344.82074347c0.08841387 0.0949632 0.17355307 0.18446827 0.06767467 0.41259733-0.09932907 0.2248544-0.2150304 0.2248544-0.35037974 0.2248544l-502.0989664 3.4634144c-16.72218773 0-35.93087253 10.80938773-35.93087253 28.34258027 0 17.5397408 19.2086848 41.717056 35.93087253 41.717056l488.4319616 0c0.13644053 0 13.91914773-9.914336 14.0184768-9.68620694 0.0949632 0.22812907 0.0207392 0.31654293-0.0753152 0.415872L770.51170453 533.79237973c-11.58982933 12.32551893-11.58982933 32.38232 0 44.70674667 5.74579627 6.10272533 13.4115872 9.46790187 21.5925792 9.46790187s15.84678293-3.36517653 21.58930454-9.46790187l167.05159893-177.59247147c5.8505824-6.25008107 8.8653792-14.6308224 8.50735893-23.6457408 0.35802027-9.00836907-2.65677547-17.39675093-8.49753493-23.6359168L813.69358933 176.02815999999996C807.95106773 169.91888532999997 800.2852768 166.56025812999997 792.1042848 166.56025812999997L792.1042848 166.56025812999997zM792.1042848 166.56025812999997"  horiz-adv-x="1024" />

    
    <glyph glyph-name="iconfontzhizuobiaozhun20" unicode="&#58899;" d="M824.314587 236.892571c-24.52251 14.159488-52.374858 21.641903-80.546477 21.641903-27.841092 0-55.371098-7.237845-79.614246-20.929682-19.84907-11.211343-37.060057-26.565029-50.537-44.919049l-193.054901 111.457488c21.162995 37.141922 26.731828 80.291674 15.659655 121.618918-3.618411 13.501502-8.880251 26.28055-15.601326 38.125319l192.997596 111.425765c13.475919-18.355043 30.686906-33.706683 50.537-44.919049 24.242124-13.69286 51.77213-20.929682 79.614246-20.929682 28.17162 0 56.023968 7.482415 80.546477 21.640879 37.325094 21.549805 64.024176 56.344263 75.181283 97.975429 11.155061 41.632189 5.430686 85.11554-16.121166 122.440633-14.425547 24.985044-35.262108 45.652759-60.257385 59.771315-24.243147 13.69286-51.773154 20.930705-79.614246 20.930705-28.170596 0-56.022944-7.483438-80.545454-21.641903-71.864748-41.491996-99.739609-130.297578-67.075675-204.581422l-196.200544-113.275903c-11.059893 12.106736-24.031323 22.579251-38.641065 31.014364-24.52251 14.157441-52.374858 21.640879-80.546477 21.640879-27.840068 0-55.370075-7.236821-79.614246-20.930705-24.995277-14.117532-45.831838-34.786271-60.256362-59.772338-21.550829-37.325094-27.275203-80.808444-16.120143-122.438587s37.855166-76.426647 75.181283-97.976452c24.51944-14.156418 52.370765-21.639856 80.543408-21.640879 0.004093 0 0.005117 0 0.00921 0 27.836999 0 55.364959 7.236821 79.607082 20.928658 14.897292 8.414647 28.300556 19.170618 39.765679 31.765471l196.265012-113.311719c-14.778588-33.495882-17.709337-70.738088-8.098445-106.610086 11.156084-41.631166 37.85619-76.426647 75.181283-97.975429 24.51944-14.157441 52.371788-21.639856 80.544431-21.641903 0.00307 0 0.005117 0 0.008186 0 27.836999 0 55.364959 7.236821 79.608106 20.929682 24.994254 14.117532 45.830815 34.786271 60.256362 59.772338 21.551852 37.325094 27.276227 80.808444 16.121166 122.438587C888.338762 180.549332 861.638657 215.343789 824.314587 236.892571zM682.589748 776.57812c18.561751 10.717086 39.624463 16.382109 60.912301 16.382109 43.552935 0 84.117816-23.400966 105.867166-61.069891 16.306384-28.243251 20.638039-61.144592 12.196787-92.645027-8.44023-31.500435-28.64234-57.828057-56.885592-74.133418-18.561751-10.717086-39.625486-16.381086-60.913325-16.381086-43.552935 0-84.117816 23.399943-105.867166 61.068867C604.241332 668.1005 624.288924 742.917486 682.589748 776.57812zM280.229844 261.886825c-21.289885 0-42.35362 5.664-60.912301 16.380062-28.243251 16.306384-48.445362 42.634006-56.885592 74.134441-8.441253 31.499411-4.110621 64.400752 12.195763 92.64298 21.748327 37.669948 62.314231 61.070914 105.866143 61.070914 21.288862 0 42.352597-5.664 60.913325-16.381086 28.243251-16.305361 48.445362-42.632983 56.886615-74.133418 8.439206-31.500435 4.107551-64.403822-12.19781-92.645027C364.345614 285.283698 323.780733 261.882732 280.229844 261.886825zM849.370239 36.109662c-21.751397-37.670971-62.315254-61.071937-105.866143-61.069891-21.290909 0.001023-42.354644 5.665023-60.913325 16.381086-28.242228 16.307408-48.445362 42.634006-56.885592 74.134441s-4.109598 64.401776 12.195763 92.64298c21.74935 37.669948 62.315254 61.070914 105.867166 61.070914 21.288862 0 42.352597-5.665023 60.913325-16.381086 28.243251-16.306384 48.445362-42.634006 56.885592-74.134441C870.008278 97.25323 865.6756 64.352913 849.370239 36.109662z"  horiz-adv-x="1024" />

    
    <glyph glyph-name="boshimao" unicode="&#58890;" d="M1037.6032 537.65333333l-516.97173333 222.33386667c-3.16373333 1.36746667-6.5344 2.05013333-9.86453334 2.05013333-3.34933333 0-6.7008-0.68373333-9.88373333-2.05013333l-516.9696-222.33386667c-10.8992-4.66666667-18.11413333-16.57066667-18.11413333-29.84213333 0-13.29386667 7.216-25.17653333 18.11413333-29.8656l516.97066667-222.33493333c3.18506667-1.38986667 6.5344-2.07466667 9.88373333-2.07466667 3.32906667 0 6.69973333 0.68373333 9.86453333 2.07466667l401.94026667 172.86293333v-176.8448c-21.5456-11.41013333-36.51733333-36.2272-36.51733333-65.08266667 0-28.85866667 14.97066667-53.6736 36.51733333-65.08266666v-61.6896h52.93653333v61.67786666c21.55733333 11.408 36.53866667 36.23146667 36.53866667 65.0944s-14.98133333 53.68746667-36.53866667 65.09653334v199.59893333l62.096 26.70826667c10.896 4.69013333 18.11413333 16.5696 18.11413334 29.8656-0.00106667 13.2704-7.2192 25.17333333-18.1152 29.84zM510.768 210.98666666999998c-7.92 0-15.69493333 1.62666667-23.09653333 4.8096l-322.2688 138.6112v-191.3888c0-156.75626667 235.0272-203.80586667 308.5184-203.80586667h73.65546666c55.04533333 0 308.53653333 47.05066667 308.53653334 203.80586667v191.3888l-322.288-138.6112c-7.38346667-3.1808-15.136-4.80853333-23.05706667-4.80853334z"  horiz-adv-x="1024" />

    
    <glyph glyph-name="bofang" unicode="&#58886;" d="M546.904228 877.89427c-277.76918 0-502.94529-225.17611-502.94529-502.94529 0-277.77164 225.17488-502.94775 502.94529-502.94775 277.76795 0 502.94529 225.17611 502.94529 502.94775C1049.849518 652.71693 824.672178 877.89427 546.904228 877.89427L546.904228 877.89427zM546.904228-77.701659c-249.992631 0-452.651868 202.659237-452.651868 452.651868 0 249.990172 202.659237 452.649408 452.651868 452.649408s452.650638-202.659237 452.650638-452.649408C999.554866 124.957578 796.896859-77.701659 546.904228-77.701659L546.904228-77.701659zM775.203924 410.593522c-78.267962 53.25591-220.1919 132.967608-301.004232 182.358388-33.132146 20.893592-60.993549 12.502952-63.667043-24.399633-1.938099-98.840588 0-289.550264 0-390.101445 1.681079-37.462125 34.709926-42.403293 63.37559-27.362121 80.72133 48.906255 219.456505 132.95777 300.588574 182.112436C773.968017 333.523344 836.097862 367.694636 775.203924 410.593522L775.203924 410.593522z"  horiz-adv-x="1085" />

    
    <glyph glyph-name="shaixuan" unicode="&#58896;" d="M921.6 209.92h-245.76c-10.24 0-20.48 10.24-20.48 20.48s10.24 20.48 20.48 20.48H921.6c10.24 0 20.48-10.24 20.48-20.48s-10.24-20.48-20.48-20.48z m0 122.88h-245.76c-10.24 0-20.48 10.24-20.48 20.48s10.24 20.48 20.48 20.48H921.6c10.24 0 20.48-10.24 20.48-20.48s-10.24-20.48-20.48-20.48z m-166.4 289.28c-2.56-2.56-243.2-227.84-243.2-227.84v-389.12l-163.84 81.92v307.2L112.64 614.4c-2.56 2.56-5.12 5.12-7.68 5.12-15.36 15.36-23.04 35.84-23.04 58.88 0 46.08 38.4 84.48 84.48 84.48h527.36c46.08 0 84.48-38.4 84.48-84.48 0-23.04-10.24-43.52-23.04-56.32zM693.76 716.8H166.4C145.92 716.8 128 698.88 128 678.4c0-10.24 2.56-20.48 10.24-25.6l2.56-2.56 227.84-215.04 15.36-12.8 2.56-25.6-2.56-273.92 81.92-40.96V422.4l15.36 12.8 230.4 212.48 2.56 2.56c7.68 7.68 10.24 15.36 10.24 25.6 7.68 23.04-10.24 40.96-30.72 40.96z m-17.92-588.8H921.6c10.24 0 20.48-10.24 20.48-20.48s-10.24-20.48-20.48-20.48h-245.76c-10.24 0-20.48 10.24-20.48 20.48 0 12.8 7.68 20.48 20.48 20.48z"  horiz-adv-x="1024" />

    
    <glyph glyph-name="kecheng" unicode="&#58917;" d="M792.00000031 804c55.15999969 0 100.00000031-44.88 99.99999938-100.00000031v-639.99999938c0-55.15999969-44.83999969-100.00000031-99.99999938-100.00000031H231.99999969A100.12000031 100.12000031 0 0 0 132.00000031 64.00000031000002V703.99999969c0 55.12000031 44.88 100.00000031 99.99999938 100.00000031h560.00000062M792.00000031 864H231.99999969a160.00000031 160.00000031 0 0 1-159.99999938-160.00000031v-639.99999938a160.00000031 160.00000031 0 0 1 159.99999938-160.00000031h560.00000062a160.00000031 160.00000031 0 0 1 159.99999938 160.00000031V703.99999969a160.00000031 160.00000031 0 0 1-159.99999938 160.00000031zM743.24 804v-338.52l-77.47999969 58.8-36.48 27.72-36.32000062-27.91999969-75.91999969-58.32V804h226.2m60 60h-346.24000031v-520.00000031l172.52000062 132.52000031 173.76-131.88V864h-0.04000031z"  horiz-adv-x="1024" />

    
    <glyph glyph-name="zuojiantou" unicode="&#58883;" d="M558.694 16.691l36.045 28.877-268.595 335.053 268.698 340.378-36.25 28.57-291.328-369.152 291.43-363.725zM718.848 16.691l35.942 28.877-268.493 335.053 268.595 340.378-36.147 28.57-291.328-369.152 291.43-363.725z"  horiz-adv-x="1024" />

    
    <glyph glyph-name="wenzhang" unicode="&#58909;" d="M785.21838933 149.12748693000003l-0.00109226-0.13098346c0.00327467-0.16263787 0.00545813-0.22048853 0.00654933-0.22048854 0.00218347 0-0.00218347 0.351472-0.00545707 0.351472zM289.96438507 570.01469013h171.0967968c18.0844128 0 32.7457984 14.6613856 32.7457984 32.7457984s-14.6613856 32.7457984-32.7457984 32.7457984h-171.0967968c-18.0844128 0-32.7457984-14.6613856-32.7457984-32.7457984s14.6613856-32.7457984 32.7457984-32.7457984zM257.21858667 383.36363946999995c0-18.0844128 14.6613856-32.7457984 32.7457984-32.74579734h446.43438506c18.0844128 0 32.7457984 14.6613856 32.74579734 32.74579734s-14.6613856 32.7457984-32.74579734 32.7457984h-446.43438506c-18.0844128 0-32.7457984-14.6613856-32.7457984-32.7457984zM736.39877013 131.22099306999996c18.0844128 0 32.7457984 14.6613856 32.74579734 32.7457984s-14.6613856 32.7457984-32.74579734 32.7457984h-446.43438506c-18.0844128 0-32.7457984-14.6613856-32.7457984-32.7457984s14.6613856-32.7457984 32.7457984-32.7457984h446.43438506zM932.32779627 581.7682496a32.7447072 32.7447072 0 0 1-9.74624107 23.30845867L673.98636907 850.3776672a32.7457984 32.7457984 0 0 1-22.99955627 9.43733867H188.6630752c-52.1782464 0-94.62771627-42.01285973-94.62771627-93.65298347v-765.5956736c0-51.641216 42.45056107-93.65407467 94.62771627-93.65407467h649.0359136c52.1782464 0 94.62771627 42.01285973 94.62771627 93.65407467V581.7682496z m-112.55276694 32.7457984H683.73261013V748.75326507l136.0424192-134.23921707z m17.92505067-642.11017707H188.6630752c-16.06618027 0-29.13611947 12.63332907-29.13611947 28.16247787V766.1620224000001c0 15.5280576 13.07103147 28.16138667 29.13611947 28.16138667h429.5779392V581.7693408c0-18.0844128 14.6613856-32.7457984 32.7457984-32.7457984h215.84938667v-548.4571936c0-15.5291488-13.07103147-28.16247787-29.13611947-28.16247787z"  horiz-adv-x="1024" />

    
    <glyph glyph-name="border_color" unicode="&#58940;" d="M957.44-9.011c0-14.454-11.822-26.179-26.179-26.179h-838.523c-14.454 0-26.179 11.817-26.179 26.179 0 14.454 11.817 26.179 26.179 26.179h838.518c14.362 0.005 26.184-11.725 26.184-26.179zM162.826 98.166l56.545 204.18 484.163 484.070c22.456 22.456 51.543 22.272 73.815 0l110.725-110.72c22.272-22.272 22.456-51.272 0-73.815l-483.896-484.26-204.355-56.54c-28.18-5.914-42.813 8.724-36.997 37.084zM648.264 657.152l110.725-110.633 73.815 73.815c19.18 19 17.91 18.816 0 36.905l-73.815 73.728c-17.454 18.816-19.18 18.816-36.91 0l-73.815-73.815zM297.37 306.253l110.72-110.725 313.989 313.989-110.72 110.72-313.989-313.984zM218.737 116.987l152.443 41.728-110.72 110.72-41.723-152.448z"  horiz-adv-x="1024" />

    
    <glyph glyph-name="haoyou" unicode="&#59054;" d="M1056.662 106.04c0-40.717-29.384-73.666-77.993-72.783-24.395 0.123-22.495-0.47-44.818 0-38.933 0.835-36.389 24.512-49.083 72.783-31.219 118.941-163.24 274.627-193.325 292.62-79.422 47.426 21.362 15.913 21.362 168.516 0 39.169-8.9 88.38-24.921 121.5-12.472 25.936-22.795 49.862 24.92 48.379 94.916-3.032 171.9-76.106 171.9-169.88 0-58.829-30.215-110.646-76.213-141.154 8.965-2.077 18.106-4.208 28.255-6.88 126.193-36.683 219.916-187.099 219.916-313.101z m-251.617-83.29c-0.293-38.926-17.089-77.746-83.212-77.693-148.874 0.178-566.382-0.53-638.44 0C2.612-54.343 0-14.583 0 22.75c0 179.914 122.748 341.063 287.46 387.478-72.468 38.71-108.798 110.82-108.798 194.281 0 121.737 100.373 220.805 223.83 220.805 123.341 0 223.715-99.064 223.715-220.805 0-83.461-39.83-155.572-112.303-194.28 164.897-46.416 292.921-209.222 291.141-387.479z m0 0"  horiz-adv-x="1057" />

    
    <glyph glyph-name="dian" unicode="&#58889;" d="M512 576a192.064 192.064 0 0 0 0-384 192 192 0 0 0 0 384z"  horiz-adv-x="1024" />

    
    <glyph glyph-name="redu" unicode="&#58908;" d="M354.56568889-35.89233778000005s-92.94848 20.48682667-142.02424889 92.95530667c-49.08032 72.47075555-97.79541333 195.94922667 8.71537778 382.78940444 40.97706667 71.88024889 112.91420445 118.88412445 157.39335111 178.72782222 71.14183111 95.71896889 108.16398222 187.29642667 108.16398222 187.29642667s90.66154667-57.00266667 124.50816-176.21674667c33.84775111-119.21749333 0-262.31239111 0-262.3123911s70.94727111 44.22542222 100.78663111 72.50716444c29.84277333 28.28174222 59.17582222 79.10172445 59.17582223 79.10172444s114.8928-127.36398222 89.5123911-283.26456888c-25.38496-155.89489778-179.84512-271.58186667-179.84512-271.58186667s-69.63086222 18.54236445-169.91004444 131.30865777-89.11644445 195.76718222-89.11644444 195.76718223-53.55747555-60.12472889-75.81696-149.27530667c-22.26289778-89.15057778 8.45482667-177.80053333 8.45482666-177.80053333z"  horiz-adv-x="1024" />

    
    <glyph glyph-name="zan" unicode="&#59504;" d="M710.549333 511.189333a12409.045333 12409.045333 0 0 1 47.466667 0.32l8.746667 0.085334c83.989333 0.618667 141.44-67.584 126.72-150.229334L847.296 101.973333c-10.026667-56.448-63.914667-101.546667-121.130667-101.589333L298.624 0a42.730667 42.730667 0 0 0-42.666667 42.410667l-0.810666 383.978666a42.666667 42.666667 0 0 0 42.026666 42.666667l3.157334 0.064c5.226667 0.042667 11.797333 0.042667 19.626666 0 91.946667-0.768 170.88 86.698667 170.709334 170.944-0.149333 86.741333 39.786667 126.762667 106.453333 127.573333 62.250667 0.746667 106.602667-59.605333 107.349333-149.12 0.213333-26.602667-6.293333-73.237333-14.506666-107.434666 6.186667 0 13.077333 0.042667 20.586666 0.085333z m-497.706666-63.232L213.333333 21.376A21.312 21.312 0 0 0 191.786667 0H149.525333A21.333333 21.333333 0 0 0 128 21.376l0.042667 426.581333A21.269333 21.269333 0 0 0 149.44 469.333333h41.984c11.669333 0 21.418667-9.578667 21.418667-21.376z"  horiz-adv-x="1024" />

    
    <glyph glyph-name="zan1" unicode="&#59505;" d="M757.76 43.093333c36.906667 0.021333 72.832 30.208 79.296 66.56l51.093333 287.04c10.069333 56.469333-27.093333 100.522667-84.373333 100.096l-10.261333-0.085333a19972.266667 19972.266667 0 0 0-52.842667-0.362667 3552.853333 3552.853333 0 0 0-56.746667 0l-30.997333 0.426667 11.498667 28.8c10.24 25.642667 21.76 95.744 21.504 128.021333-0.618667 73.045333-31.36 114.858667-69.290667 114.410667-46.613333-0.554667-69.461333-23.466667-69.333333-91.136 0.213333-112.661333-102.144-226.112-225.130667-225.109333a1214.08 1214.08 0 0 1-20.629333 0l-3.52-0.042667c-0.192 0 0.64-409.109333 0.64-409.109333 0 0.085333 459.093333 0.490667 459.093333 0.490666z m-17.301333 495.914667a15332.288 15332.288 0 0 1 52.693333 0.362667l10.282667 0.085333c84.010667 0.618667 141.44-67.52 126.72-150.250667L879.061333 102.186667c-10.090667-56.661333-63.68-101.696-121.258666-101.76l-458.922667-0.384A42.666667 42.666667 0 0 0 256 42.453333l-0.853333 409.173334a42.624 42.624 0 0 0 42.346666 42.730666l3.669334 0.042667c5.909333 0.064 13.12 0.064 21.333333 0 98.176-0.789333 182.293333 92.437333 182.144 182.378667C504.469333 767.978667 546.24 809.813333 616.106667 810.666667c65.173333 0.768 111.68-62.506667 112.448-156.714667 0.256-28.48-6.848-78.826667-15.701334-115.050667 8.021333 0 17.28 0.042667 27.584 0.106667zM170.666667 448v-405.333333h23.466666a21.333333 21.333333 0 0 0 0-42.666667H154.837333A26.709333 26.709333 0 0 0 128 26.666667v437.333333c0 14.784 12.074667 26.666667 26.773333 26.666667h38.912a21.333333 21.333333 0 0 0 0-42.666667H170.666667z"  horiz-adv-x="1024" />

    
    <glyph glyph-name="bofang1" unicode="&#59555;" d="M675.328 778.282667A425.429333 425.429333 0 0 1 512 810.666667C276.352 810.666667 85.333333 619.648 85.333333 384s191.018667-426.666667 426.666667-426.666667 426.666667 191.018667 426.666667 426.666667c0 56.746667-11.093333 112-32.384 163.328a21.333333 21.333333 0 0 1-39.402667-16.341333A382.762667 382.762667 0 0 0 896 384c0-212.074667-171.925333-384-384-384S128 171.925333 128 384 299.925333 768 512 768c51.114667 0 100.8-9.984 146.986667-29.12a21.333333 21.333333 0 0 1 16.341333 39.402667zM456.704 590.08C432.704 606.848 405.333333 592.917333 405.333333 564.202667v-360.533334c0-28.586667 27.541333-42.538667 51.370667-25.856l252.352 176.768c21.76 15.253333 21.632 43.541333 0 58.709334l-252.373333 176.768z m-8.597333-366.72V544.533333l229.269333-160.597333-229.269333-160.597333z"  horiz-adv-x="1024" />

    
    <glyph glyph-name="huodong" unicode="&#58888;" d="M941.06564835 873.46362595c-5.68561209 3.670016-26.13284409 13.87615573-50.45980728-9.00610275-3.06417209-2.86610773-6.05843911-5.73221547-9.04105529-8.56337067-63.38059378-60.22321493-105.26537955-100.01084871-337.82788551-21.78707911C481.14856391 855.16014933 417.53495325 864.55072995 354.66699662 862.03414755c-50.35494969-2.01559609-100.29046898-11.65084445-148.39680569-28.61447395-82.19670755-28.98730098-130.83898311-69.49728711-132.86623004-71.1983104-1.79423005-1.51460978-3.3554432-3.20398222-4.68363947-5.02151395a28.56787058 28.56787058 0 0 1-10.99839715-35.80304498L417.74466845-92.03020231000005a28.55621973 28.55621973 0 1 1 52.24238648 23.11527538l-166.86339413 377.02132622 2.80785351 5.3477376c37.8535936 72.31679147 80.75200285 154.26883129 301.19763058 134.71871431 40.19541333-3.5651584 79.50536249 3.02921955 116.96282738 19.6083712 2.31851805 1.02527431 4.64868693 2.097152 6.95555413 3.20398222 33.9738624 16.252928 66.33990827 40.84786062 96.20102258 73.06244551 46.71988622 50.42485475 87.89397049 121.19208391 112.96658773 194.16132267 9.5420416 27.787264 15.89175182 53.53563022 18.33842916 74.448896 2.29521635 19.77148302 3.00591787 47.57039787-17.48791752 60.80575715z"  horiz-adv-x="1024" />

    
    <glyph glyph-name="jiantou" unicode="&#58884;" d="M465.306 751.309l-36.045-28.877 268.595-335.053-268.698-340.378 36.251-28.57 291.328 369.152-291.431 363.725zM305.152 751.309l-35.942-28.877 268.493-335.053-268.595-340.378 36.147-28.57 291.328 369.152-291.431 363.725z"  horiz-adv-x="1024" />

    
    <glyph glyph-name="gerenzhongxin" unicode="&#59231;" d="M612.6 329.1H414c-170 0-307.8-135.5-307.8-302.8v-19.5c0-68.3 137.8-68.4 307.8-68.4h198.6c170 0 307.8 2.5 307.8 68.4v19.5c0.1 167.3-137.8 302.8-307.8 302.8zM503.4 363.6c131.6 0 238.3 105 238.3 234.4 0 129.5-106.7 234.4-238.3 234.4S265.1 727.5 265.1 598c0-129.4 106.7-234.4 238.3-234.4z"  horiz-adv-x="1024" />

    
    <glyph glyph-name="jishi" unicode="&#58895;" d="M512-128c-282.304 0-512 229.696-512 512s229.696 512 512 512 512-229.696 512-512-229.696-512-512-512zM512 847.232C256.576 847.232 48.768 639.424 48.768 384S256.576-79.232 512-79.232 975.232 128.576 975.232 384 767.424 847.232 512 847.232zM828.928 359.616H548.544a60.992 60.992 0 0 0-60.928 60.928V749.696a24.32 24.32 0 1 0 48.768 0v-329.152c0-6.656 5.44-12.16 12.16-12.16h280.384a24.32 24.32 0 1 0 0-48.768z"  horiz-adv-x="1024" />

    
    <glyph glyph-name="zhiboyuan" unicode="&#58882;" d="M739.35152001 562.19240199H283.668153c-29.704532 0-53.20680601-23.503297-53.206806-53.534264v-336.53880298c0-30.030967 23.502273-53.532217 53.206806-53.532217h455.68234301c29.70248601 0 53.20578201 23.503297 53.20578299 53.532217V508.65813799c0.001023 30.030967-23.502273 53.534264-53.20475901 53.534264z m-83.86199-236.266052L441.904037 201.653999c-3.81386201-2.225691-7.628748-3.17736601-11.75983499-3.17736601-4.13313399 0-8.264221 0.95269801-11.76085801 3.17736601-7.310499 4.131087-11.759835 11.758812-11.759835 20.342304V470.542029c0 8.26319801 4.450359 16.20916999 11.759835 20.34128a23.86145399 23.86145399 0 0 0 23.51967001 0L655.48953001 366.60993398999994c6.99225101-4.13210999 11.44261001-12.07808301 11.75983499-20.34230299 0-8.26319801-4.450359-16.208147-11.75983499-20.34128101zM511.76617501 894.72598399c-280.352129 0-507.623319-227.27119001-507.62332001-507.62434299 0-280.352129 227.27119001-507.624343 507.62332001-507.62434299 280.35622199 0 507.62536601 227.273237 507.62536599 507.62434299 0.001023 280.353153-227.269144 507.624343-507.62536599 507.62434299z m318.53372999-717.86362499c0-26.37980999-9.85341501-50.85320199-27.650757-68.969814-17.799388-18.11661299-41.954531-27.970028-68.334341-27.970028H290.614355c-25.427112 0-49.26502999 10.17064-67.69886799 28.60550099-18.11661299 18.434861-28.287253 42.588981-28.287253 68.01711602V504.55058701c0 25.427112 9.852392 49.582255 28.287253 68.01609299 18.434861 18.434861 42.271756 28.60652499 67.69886799 28.606525H406.94175699l-34.00855799 58.79815c-6.03853001 10.488889-3.17736601 23.83791801 7.3105 31.46666599 10.80713699 6.039553 23.51966999 2.225691 30.830169-9.21691898l46.72211399-81.04789701h99.16451101l46.722114 81.04789701c6.99225101 11.441587 20.023032 15.256472 30.830169 9.21691898 10.169617-7.308453 13.34800601-20.977777 7.311523-31.46666599l-34.00958101-58.79815h125.546367c25.426089 0 49.264007-10.171664 67.69784502-28.606525h0.00204699c18.11558999-18.43383801 28.287253-42.590004 29.239951-68.33331801v-327.37100299z"  horiz-adv-x="1024" />

    
    <glyph glyph-name="fangdajing" unicode="&#59101;" d="M722.488889 253.155556c45.511111 62.577778 73.955556 136.533333 73.955555 216.177777C796.444444 674.133333 631.466667 839.111111 426.666667 839.111111S56.888889 674.133333 56.888889 469.333333 221.866667 99.555556 426.666667 99.555556c79.644444 0 153.6 28.444444 216.177777 68.266666l221.866667-221.866666c22.755556-22.755556 56.888889-22.755556 79.644445 0 22.755556 22.755556 22.755556 56.888889 0 79.644444l-221.866667 227.555556zM426.666667 156.444444C256 156.444444 113.777778 298.666667 113.777778 469.333333S256 782.222222 426.666667 782.222222 739.555556 640 739.555556 469.333333 597.333333 156.444444 426.666667 156.444444"  horiz-adv-x="1024" />

    
    <glyph glyph-name="left-angle" unicode="&#58881;" d="M383.88508444 383.72010666999995l332.40746667 332.41315555c13.96963556 13.96053333 13.96963556 36.62051556 0 50.58218667-13.96053333 13.96963556-36.62051556 13.96963556-50.58218667 0l-357.70254222-357.70481778c-13.97304889-13.96053333-13.97304889-36.62051556 0-50.58218667l357.70368-357.70368c6.98254221-6.98595556 16.13710222-10.48007111 25.29052445-10.48007111s18.30912 3.49411556 25.29052444 10.48007111c13.97304889 13.96053333 13.97304889 36.62051556 0 50.58218667l-332.40974222 332.41429333z"  horiz-adv-x="1024" />

    
    <glyph glyph-name="zhibo" unicode="&#59450;" d="M910.262857 681.179429H673.133714l128.950857 96.694857a56.905143 56.905143 0 1 1-68.169142 90.989714L512.073143 702.464 290.157714 868.864a56.905143 56.905143 0 1 1-68.242285-90.989714l128.950857-96.694857H113.737143C50.907429 681.179429 0 630.198857 0 567.369143v-568.905143c0-62.902857 50.907429-113.810286 113.737143-113.810286h796.525714A113.737143 113.737143 0 0 1 1024-1.462857V567.369143a113.737143 113.737143 0 0 1-113.737143 113.810286zM691.785143 250.733714l-246.198857-164.059428c-26.185143-17.481143-47.396571-5.851429-47.396572 25.014857V452.681143c0 31.012571 21.284571 42.422857 47.396572 25.014857l246.198857-163.766857c26.185143-17.408 26.038857-45.787429 0-63.195429z"  horiz-adv-x="1024" />

    
    <glyph glyph-name="xwzx" unicode="&#58900;" d="M857.5 495.7v-460.1c0-26 21.1-47.2 47.2-47.3 26 0.1 47.2 21.3 47.2 47.3V495.7h-94.4zM804 35.60000000000002V774.3c0 31.6-25.6 57.2-57.2 57.2H129.3c-31.6 0-57.2-25.6-57.2-57.2v-780.6c0-31.6 25.6-57.2 57.2-57.2h753.4c0.9 0 1.8 0.2 2.7 0.3-46.3 9.1-81.4 49.9-81.4 98.8z m-367.7 86.1H266.5c-16.4 0-29.7 13.3-29.7 29.7s13.3 29.7 29.7 29.7h169.8c16.4 0 29.7-13.3 29.7-29.7s-13.3-29.7-29.7-29.7z m155.3 155H266.5c-16.4 0-29.7 13.3-29.7 29.7s13.3 29.7 29.7 29.7h325.1c16.4 0 29.7-13.3 29.7-29.7 0.1-16.3-13.2-29.7-29.7-29.7z m0 158.1H266.5c-16.4 0-29.7 13.3-29.7 29.7s13.3 29.7 29.7 29.7h325.1c16.4 0 29.7-13.3 29.7-29.7 0.1-16.4-13.2-29.7-29.7-29.7z m0 152H266.5c-16.4 0-29.7 13.3-29.7 29.7s13.3 29.7 29.7 29.7h325.1c16.4 0 29.7-13.3 29.7-29.7 0.1-16.3-13.2-29.7-29.7-29.7z"  horiz-adv-x="1024" />

    
    <glyph glyph-name="task-icon" unicode="&#58892;" d="M150.86925189 754.46302274a37.61189467 37.61189467 0 0 1-37.61189468-37.61189469v-722.26149622c0-20.78552075 16.82637394-37.61189467 37.61189468-37.61189467h722.26149622a37.61189467 37.61189467 0 0 1 37.61189468 37.61189467V716.8511280499999a37.61189467 37.61189467 0 0 1-37.61189468 37.61189469h-54.29687049v-13.71561573a126.26850355 126.26850355 0 0 0-126.26850356-126.26850354h-361.13074812a126.26850355 126.26850355 0 0 0-126.26850356 126.26850354V754.46302274h-54.29687049z m108.02814861 53.73127809v-67.44689382a72.53722544 72.53722544 0 0 1 72.53722544-72.53722544h361.13074812a72.53722544 72.53722544 0 0 1 72.53722544 72.53722544V808.19430083h108.02814861A91.34317278 91.34317278 0 0 0 964.47392089 716.8511280499999v-722.26149622A91.34317278 91.34317278 0 0 0 873.13074811-96.75354095H150.86925189A91.34317278 91.34317278 0 0 0 59.52607911-5.41036816999997V716.8511280499999A91.34317278 91.34317278 0 0 0 150.86925189 808.19430083h108.02814861z m108.87653722 31.10758207v-62.21516413h288.45212456V839.3018829H367.77393772zM359.71424599 893.03316101h304.57150802C689.51117509 893.03316101 709.95734038 872.5869957 709.95734038 847.36157462v-78.33454756c0-25.2254211-20.4461653-45.67158638-45.67158637-45.67158639h-304.57150802A45.67158638 45.67158638 0 0 0 314.04265962 769.02702706v78.33454756C314.04265962 872.5869957 334.48882491 893.03316101 359.71424599 893.03316101z m331.09779163-377.08045383a26.86563906 26.86563906 0 1 0 38.29060555-37.66845392l-250.47259484-254.5165805a26.86563906 26.86563906 0 0 0-38.2057667-0.08483885l-117.16246589 117.95429525a26.86563906 26.86563906 0 0 0 38.12092784 37.89469086l98.01716312-98.69587399 231.41213092 235.11676115z"  horiz-adv-x="1024" />

    
    <glyph glyph-name="zhongzhi" unicode="&#58905;" d="M980.375478 315.01285900000005a40.399628 40.399628 0 0 1-48.496423-30.088868c-2.235053-9.530601-4.828557-19.124459-7.738342-28.486377-56.150423-181.629645-221.734078-303.629776-412.050908-303.629775-176.210697 0-331.251651 104.646846-397.818262 264.347673l217.453741-58.258963a40.336372 40.336372 0 0 1 20.874547 77.910557L63.287043 314.338126A40.441799 40.441799 0 0 1 13.799607 285.76740700000005a39.724896 39.724896 0 0 1 0.611476-22.708977c2.488077-10.247505 5.292436-20.49501 8.434161-30.552746A516.318216 516.318216 0 0 1 205.381561-26.022419000000014a512.122222 512.122222 0 0 1 613.353232 0 516.170619 516.170619 0 0 1 182.515232 258.591359c3.458006 11.133092 6.55756 22.519208 9.21432 33.863154a40.399628 40.399628 0 0 1-30.088867 48.580765zM43.783047 453.712627a40.378543 40.378543 0 0 1 48.496422 30.004526c2.10854 9.319747 4.765301 18.66058 7.590745 27.811644 2.277223 7.37989 4.786386 14.759781 7.464232 22.013158C169.620721 702.035395 332.231334 815.242914 511.942207 815.242914c176.37938 0 331.525761-104.8577 397.986946-264.811552l-217.748937 58.36439a40.378543 40.378543 0 0 1-20.874547-78.015984l288.342859-77.25691a40.167689 40.167689 0 0 1 11.365032-1.686832 41.369557 41.369557 0 0 1 9.277576 1.075356 40.399628 40.399628 0 0 1 30.067782 48.496422c-2.656761 11.301775-5.756314 22.687892-9.193235 33.736642a516.233875 516.233875 0 0 1-182.515232 258.612444A512.206563 512.206563 0 0 1 31.5746 561.311429c-3.16281-8.602844-6.156937-17.395456-8.876954-26.166983-3.352579-10.880067-6.32562-21.992073-9.003466-33.061909a40.420714 40.420714 0 0 1 30.088867-48.36991z"  horiz-adv-x="1024" />

    
    <glyph glyph-name="aixin" unicode="&#58894;" d="M742.4 299.52l113.152 113.664c60.416 60.928 60.416 162.304 0 226.816-64.512 65.024-165.888 65.024-226.304 0L516.096 526.336 402.432 640c-64.512 65.024-165.376 65.024-226.304 0-60.416-60.928-60.416-162.304 0-226.816L289.28 299.52l226.304-226.816L742.4 299.52z m47.104-47.104L563.2 25.6l-47.104-47.616-47.104 47.616-226.304 226.816L128 367.616c-84.992 90.624-84.992 232.96 0 317.952 87.04 92.672 231.424 92.672 322.56 1.536L563.2 573.44h-94.72l111.616 112.128c87.04 92.672 231.424 92.672 324.096 0 84.992-90.624 84.992-232.96-1.536-319.488L789.504 252.416z"  horiz-adv-x="1024" />

    
    <glyph glyph-name="yanjing" unicode="&#59315;" d="M512.001 469.348c-47.126 0-85.348-38.222-85.348-85.348 0-47.024 38.221-85.246 85.348-85.246 47.126 0 85.346 38.222 85.346 85.246 0 47.126-38.22 85.348-85.346 85.348M512.001 725.238C229.344 725.238 0.118 384.05 0.118 384.05s229.226-341.289 511.883-341.289c282.656 0 511.881 341.289 511.881 341.289S794.657 725.238 512.001 725.238m0-554.504c-117.866 0-213.318 95.501-213.318 213.316 0 117.714 95.452 213.218 213.318 213.218 117.864 0 213.318-95.504 213.318-213.218 0-117.815-95.454-213.316-213.318-213.316"  horiz-adv-x="1024" />

    
    <glyph glyph-name="youxuanzhuandu" unicode="&#58912;" d="M375.381333 333.482667c-57.898667 5.162667-89.472 39.296-94.634666 102.4 4.138667 67.2 37.76 103.381333 100.864 108.586666 72.362667 1.024 108.032-50.176 107.008-153.6 0-109.610667-37.76-164.906667-113.237334-165.973333-45.525333 2.133333-74.453333 24.32-86.869333 66.730667l32.597333 10.837333c7.210667-36.181333 26.368-53.76 57.386667-52.736 48.597333 2.048 73.386667 44.970667 74.453333 128.768-15.488-29.994667-41.386667-45.013333-77.568-45.013333z m3.114667 181.504c-39.296-3.072-60.501333-28.458667-63.573333-75.989334 2.048-47.573333 23.253333-72.96 63.573333-76.032 40.32 0 65.152 18.602667 74.453333 55.850667 0 65.152-24.832 97.194667-74.453333 96.170667z m145.834667-131.84c0.981333 104.448 35.114667 158.208 102.4 161.322666 67.157333-2.090667 101.290667-55.850667 102.357333-161.322666-1.066667-103.424-34.688-156.16-100.821333-158.250667-69.333333 1.066667-103.936 53.76-103.936 158.250667z m169.088 0c0 89.984-22.784 134.4-68.266667 133.418666-42.410667-3.114667-64.128-47.616-65.152-133.418666 0-88.96 22.186667-132.906667 66.688-131.84 44.458667-1.066667 66.730667 42.88 66.730667 131.84z m75.989333 82.218666c3.114667 35.157333 22.229333 54.272 57.386667 57.386667 36.181333-3.114667 55.893333-22.229333 58.965333-57.386667-3.114667-36.224-22.784-55.893333-58.965333-58.965333-35.157333 3.114667-54.272 22.741333-57.386667 58.965333z m96.170667 0c-3.072 24.832-16.042667 38.229333-38.784 40.32-22.741333-3.114667-35.669333-16.554667-38.784-40.32 3.114667-24.832 16.042667-38.826667 38.826666-41.898666 22.698667 2.048 35.669333 16.042667 38.741334 41.898666z m-354.176-592.64C229.418667-127.274667 0.042667 102.101333 0.042667 384.128 0 666.026667 229.418667 895.488 511.402667 895.488c157.696 0 298.922667-71.765333 392.789333-184.32V841.386667l47.146667-47.872-1.109334-167.765334-167.765333 1.365334-47.061333 47.744h8.106666l121.557334-0.981334a456.704 456.704 0 0 1-353.664 167.68c-252.245333 0-457.429333-205.226667-457.429334-457.429333 0-252.288 205.184-457.514667 457.429334-457.514667s457.472 205.226667 457.472 457.514667v0.981333h53.888v-0.981333c0-282.026667-229.376-511.402667-511.36-511.402667z"  horiz-adv-x="1024" />

    
    <glyph glyph-name="right-arrow" unicode="&#58880;" d="M151.467 691.627a34.133 34.133 0 1 0 48.213 48.213l331.947-331.947a34.133 34.133 0 0 0 0-48.213L199.68 28.159999999999968a34.133 34.133 0 1 0-48.213 48.213L459.093 384z m341.333 0a34.133 34.133 0 0 0 48.213 48.213L872.96 407.893a34.133 34.133 0 0 0 0-48.213L541.013 27.732999999999947a34.133 34.133 0 0 0-48.213 48.214L800.427 384z"  horiz-adv-x="1024" />

    
    <glyph glyph-name="shipin" unicode="&#58887;" d="M726.81984 895.9232H90.43968A90.4448 90.4448 0 0 1 0 805.48864v-842.99776a90.4448 90.4448 0 0 1 90.44992-90.43456h843.12064A90.4448 90.4448 0 0 1 1024-37.50912000000005V598.784z m245.51424-318.55616v-2.01216h-201.89696a64.68096 64.68096 0 0 0-64.60928 64.59904V843.84768zM933.56544-76.28800000000001H90.43968a38.81472 38.81472 0 0 0-38.76352 38.76864V805.48864a38.8096 38.8096 0 0 0 38.76352 38.76352h563.712v-204.288a116.42368 116.42368 0 0 1 116.28544-116.29056h201.89696v-561.18272a38.81472 38.81472 0 0 0-38.76864-38.77888z m-262.144 501.51936L454.19008 550.6304a82.5088 82.5088 0 0 1-41.18528 12.16c-29.696 0-59.62752-21.75488-59.62752-70.35392V241.664c0-48.59904 29.952-70.35392 59.62752-70.35392a82.49344 82.49344 0 0 1 41.18528 12.16l217.21088 125.40416c24.79616 14.29504 39.01952 35.5072 39.01952 58.18368s-14.21824 43.87328-39.0144 58.18368z m-21.67808-78.848l-217.22624-125.3888a39.76704 39.76704 0 0 0-19.5072-6.3488c-14.16192 0-16.27648 16.896-16.27648 27.008V492.43648c0 10.09152 2.11456 27.008 16.27648 27.008a39.73632 39.73632 0 0 0 19.5072-6.3488l217.21088-125.3888c10.86464-6.272 17.34656-13.98784 17.34656-20.6592s-6.48192-14.37696-17.34656-20.64896zM92.24192 782.99136h85.30944V697.7024H92.24192V782.99136z m0-173.568h85.30944v-85.26336H92.24192V609.44384z m0-173.568h85.30944v-85.28896H92.24192V435.90144z m0-173.568h85.30944v-85.28384H92.24192v85.3504z m0-173.5424h85.30944v-85.28896H92.24192v85.35552z m735.70304 347.15648h85.30432v-85.28896h-85.30432V435.90144z m0-173.568h85.30432v-85.28384h-85.30432v85.30432z m0-173.5424h85.30432v-85.28896h-85.30432v85.30944z"  horiz-adv-x="1024" />

    
    <glyph glyph-name="guanbi" unicode="&#58885;" d="M963.328-106.81899999999996a37.628 37.628 0 0 0-26.596 11.034L30.815 810.1320000000001c-14.687 14.686-14.687 38.502 0 53.19 14.686 14.687 38.502 14.687 53.19 0l905.992-906a37.697 37.697 0 0 0 7.936-40.912 37.691 37.691 0 0 0-34.605-23.229M57.407-106.81899999999996a37.555 37.555 0 0 0-34.857 23.182 37.537 37.537 0 0 0 8.265 41.035L936.816 863.32c14.866 13.52 37.739 12.973 51.937-1.249 14.202-14.22 14.716-37.094 1.17-51.942L84.004-95.78700000000003a37.579 37.579 0 0 0-26.598-11.032"  horiz-adv-x="1024" />

    
    <glyph glyph-name="rili" unicode="&#58907;" d="M865.6 759.6h-48.8V708h36c51.2 0 92.4-40.8 92.4-91.6v-525.2c0-50.4-41.2-91.6-92.4-91.6h-684c-51.2 0-92.4 40.8-92.4 91.6V616.4C76.4 666.8 117.6 708 168.8 708h38.8V759.6H156c-73.2 0-132.4-58.8-132.4-131.2v-549.6c0-72.4 59.2-131.2 132.4-131.2h710c73.2 0 132.4 58.8 132.4 131.2V628.4c-0.4 72.4-59.6 131.2-132.8 131.2z m-246.4 0h-217.2v-52.8h217.2V759.6z m-306.8-108h18c10 0 18 8.4 18 18.4V796c0 10-8 18.4-18 18.4h-18c-10 0-18-8-18-18.4v-126c-0.4-10.4 8-18.4 18-18.4z m379.2 0h18c10 0 18 8.4 18 18.4V796c0 10-8 18.4-18 18.4h-18c-10 0-18-8-18-18.4v-126c0-10.4 8-18.4 18-18.4zM266 380.8h56.4c14.4 0 26 11.6 26 26v56c0 14.4-11.6 26-26 26H266c-14.4 0-26-11.6-26-26v-56c-0.4-14.4 11.6-26 26-26z m298.8 82c0 14.4-11.6 26-26 26h-56.4c-14.4 0-26-11.6-26-26v-56c0-14.4 11.6-26 26-26h56.4c14.4 0 26 11.6 26 26v56z m134-82h56.4c14.4 0 26 11.6 26 26v56c0 14.4-11.6 26-26 26h-56.4c-14.4 0-26-11.6-26-26v-56c0-14.4 11.6-26 26-26zM266 164.4h56.4c14.4 0 26 11.6 26 26v56.4c0 14.4-11.6 26-26 26H266c-14.4 0-26-11.6-26-26v-56.4c-0.4-14.4 11.6-26 26-26z m272.8 108h-56.4c-14.4 0-26-11.6-26-26v-56.4c0-14.4 11.6-26 26-26h56.4c14.4 0 26 11.6 26 26v56.4c0 14.4-11.6 26-26 26z m160-108h56.4c14.4 0 26 11.6 26 26v56.4c0 14.4-11.6 26-26 26h-56.4c-14.4 0-26-11.6-26-26v-56.4c0-14.4 11.6-26 26-26z m0 0"  horiz-adv-x="1024" />

    
    <glyph glyph-name="shouye" unicode="&#59252;" d="M570.24 810.56a89.536 89.536 0 0 1-116.352 0L75.328 478.272a35.712 35.712 0 0 1-4.928-46.592c10.24-14.336 28.544-16.768 41.536-5.44l11.776 10.816v-401.6c0-56.96 54.016-99.456 101.504-99.456h597.376c47.04 0 77.696 39.936 77.696 99.456v400l10.88-9.216a28.672 28.672 0 0 1 18.752-7.168 28.8 28.8 0 0 1 23.488 12.608 35.584 35.584 0 0 1-4.672 46.592L570.24 810.56zM422.4 213.952C422.4 227.84 427.392 294.4 512 294.4c84.608 0 89.6-66.56 89.6-80.448v-218.24H422.4v218.24z"  horiz-adv-x="1024" />

    
    <glyph glyph-name="right-angle" unicode="&#59556;" d="M640.11491556 384.27989333l-332.40746667-332.41315555c-13.96963556-13.96053333-13.96963556-36.62051556 0-50.58218667 13.96053333-13.96963556 36.62051556-13.96963556 50.58218667 0l357.70254222 357.70481778c13.97304889 13.96053333 13.97304889 36.62051556 0 50.58218667l-357.70368 357.70368c-6.98254221 6.98595556-16.13710222 10.48007111-25.29052445 10.48007111s-18.30912-3.49411556-25.29052444-10.48007111c-13.97304889-13.96053333-13.97304889-36.62051556 0-50.58218667l332.40974222-332.41429333z"  horiz-adv-x="1024" />

    


  </font>
</defs>
</svg>
